<?xml version="1.0" standalone="no"?>
<!DOCTYPE svg PUBLIC "-//W3C//DTD SVG 20010904//EN"
 "http://www.w3.org/TR/2001/REC-SVG-20010904/DTD/svg10.dtd">
<svg version="1.0" xmlns="http://www.w3.org/2000/svg"
 width="400.000000pt" height="400.000000pt" viewBox="0 0 400.000000 400.000000"
 preserveAspectRatio="xMidYMid meet">
<metadata>
Created by potrace 1.14, written by Peter Selinger 2001-2017
</metadata>
<g transform="translate(0.000000,400.000000) scale(0.100000,-0.100000)"
fill="#000000" stroke="none">
<path d="M0 2000 l0 -2000 204 0 204 0 27 78 c57 162 111 260 183 332 84 84
147 108 245 94 34 -5 159 -9 277 -9 222 0 292 9 360 44 39 20 40 23 25 201 -5
66 -2 107 13 183 20 99 35 128 104 210 19 22 28 41 22 46 -5 5 -56 21 -114 35
-306 78 -364 260 -108 341 44 14 86 25 94 25 24 0 127 39 141 53 11 11 9 25
-13 83 -65 167 -6 316 140 355 74 20 166 61 176 79 27 50 -66 194 -249 389
-60 64 -177 233 -208 298 -82 176 -84 315 -7 465 37 75 64 155 64 195 0 19
-34 140 -76 269 l-76 234 -714 0 -714 0 0 -2000z"/>
<path d="M1616 3893 c19 -60 50 -154 69 -211 55 -163 49 -256 -28 -422 -59
-128 -63 -149 -42 -238 32 -137 60 -182 269 -432 196 -234 246 -320 246 -423
0 -107 -65 -168 -230 -217 -123 -36 -142 -76 -95 -192 59 -146 8 -252 -144
-294 -126 -35 -191 -57 -191 -65 0 -8 43 -22 190 -63 71 -20 115 -48 140 -88
39 -64 23 -126 -55 -222 -45 -54 -50 -67 -67 -155 -17 -90 -17 -101 -2 -176
31 -153 2 -230 -110 -285 -121 -60 -303 -78 -589 -60 -176 11 -189 11 -215 -7
-68 -44 -130 -139 -167 -253 -10 -30 -21 -59 -26 -65 -5 -5 -9 -13 -9 -17 0
-4 774 -8 1720 -8 l1720 0 0 2000 0 2000 -1209 0 -1209 0 34 -107z m1587
-1523 c45 -39 149 -171 193 -245 256 -425 273 -954 43 -1383 -57 -108 -138
-220 -213 -298 -60 -63 -92 -69 -133 -28 -36 36 -26 74 40 143 100 106 204
273 242 391 10 30 21 60 26 65 4 6 16 48 26 95 26 123 26 461 -1 575 -10 44
-22 85 -26 90 -4 6 -15 35 -25 65 -29 92 -144 284 -216 363 -98 107 -107 130
-64 172 32 33 67 31 108 -5z m-372 -222 c125 -128 234 -338 275 -526 23 -105
23 -349 0 -454 -41 -188 -148 -394 -270 -520 -36 -38 -53 -48 -78 -48 -44 0
-68 25 -68 71 0 30 8 46 38 78 84 89 142 178 188 291 91 225 86 513 -14 740
-39 89 -128 224 -178 270 -14 13 -30 34 -35 47 -17 45 18 93 68 93 26 0 42 -9
74 -42z m-407 -191 c97 -100 173 -239 206 -377 56 -239 -8 -513 -165 -702 -62
-74 -93 -90 -134 -67 -55 31 -52 81 9 146 82 88 152 248 165 378 7 70 -9 230
-25 250 -4 5 -13 28 -20 50 -19 60 -66 140 -121 202 -55 64 -61 92 -24 128 34
35 70 32 109 -8z"/>
</g>
</svg>
