<?xml version="1.0" standalone="no"?>
<!DOCTYPE svg PUBLIC "-//W3C//DTD SVG 20010904//EN"
 "http://www.w3.org/TR/2001/REC-SVG-20010904/DTD/svg10.dtd">
<svg version="1.0" xmlns="http://www.w3.org/2000/svg"
 width="460.000000pt" height="460.000000pt" viewBox="0 0 460.000000 460.000000"
 preserveAspectRatio="xMidYMid meet">
<metadata>
Created by potrace 1.14, written by Peter Selinger 2001-2017
</metadata>
<g transform="translate(0.000000,460.000000) scale(0.100000,-0.100000)"
fill="#000000" stroke="none">
<path d="M0 3910 l0 -690 22 5 c90 20 134 26 257 35 189 13 570 -10 756 -46
l30 -6 -32 33 c-45 48 -141 185 -171 244 -78 153 -69 331 24 471 63 95 183
185 302 226 57 19 87 23 197 23 121 0 135 -3 205 -31 227 -91 401 -293 494
-574 36 -109 80 -295 92 -389 l7 -53 53 6 c126 15 417 130 541 214 78 53 174
157 207 224 73 149 23 333 -107 394 -29 13 -65 24 -82 24 -77 1 -175 83 -223
188 -50 109 -40 255 24 355 l24 37 -1310 0 -1310 0 0 -690z"/>
<path d="M3321 4539 c126 -184 136 -519 24 -815 -116 -307 -313 -503 -707
-703 -122 -62 -313 -141 -406 -167 -9 -3 -12 -13 -8 -31 25 -117 39 -863 16
-863 -6 0 -38 19 -70 42 -56 39 -60 44 -60 82 -2 216 -47 696 -69 718 -3 3
-41 0 -83 -7 -149 -27 -348 -37 -495 -26 -160 13 -205 20 -563 94 -376 79
-465 91 -670 91 -96 1 -187 -2 -202 -7 l-28 -7 0 -385 0 -385 28 11 c41 15
105 54 124 76 10 11 31 43 47 72 l29 53 16 -43 c76 -208 3 -412 -188 -519
l-56 -32 0 -894 0 -894 650 0 650 0 -61 73 c-313 370 -513 922 -471 1299 38
342 193 570 490 718 171 86 354 103 509 48 156 -56 324 -199 466 -400 l68 -96
45 25 c37 21 45 30 40 47 -37 156 -41 375 -8 498 75 279 233 474 492 608 128
65 219 90 355 97 92 5 124 2 195 -16 223 -56 402 -191 560 -422 180 -263 219
-523 130 -874 -40 -159 -99 -300 -265 -636 -147 -297 -229 -489 -261 -614 -21
-83 -25 -250 -6 -312 l13 -43 390 0 390 0 15 37 c24 57 15 173 -19 247 -31 67
-112 149 -222 224 -80 55 -85 68 -65 180 21 124 79 203 187 254 111 53 216 47
299 -17 l34 -26 0 1850 0 1851 -660 0 -660 0 41 -61z"/>
<path d="M1275 3863 c-185 -67 -267 -224 -202 -383 23 -56 121 -206 174 -267
27 -31 34 -33 143 -47 142 -18 580 -31 580 -17 0 29 -90 263 -142 371 -54 111
-70 134 -143 207 -103 103 -178 142 -287 149 -54 3 -86 0 -123 -13z"/>
</g>
</svg>
